<?xml version="1.0" standalone="no"?>
<!DOCTYPE svg PUBLIC "-//W3C//DTD SVG 20010904//EN"
 "http://www.w3.org/TR/2001/REC-SVG-20010904/DTD/svg10.dtd">
<svg version="1.0" xmlns="http://www.w3.org/2000/svg"
 width="438.000000pt" height="438.000000pt" viewBox="0 0 438.000000 438.000000"
 preserveAspectRatio="xMidYMid meet">
<metadata>
Created by potrace 1.14, written by Peter Selinger 2001-2017
</metadata>
<g transform="translate(0.000000,438.000000) scale(0.100000,-0.100000)"
fill="#000000" stroke="none">
<path d="M2005 4294 c-357 -36 -594 -100 -870 -233 -682 -330 -1081 -943
-1124 -1729 -15 -266 14 -549 79 -782 218 -774 857 -1309 1725 -1445 141 -23
454 -30 611 -16 772 71 1413 484 1725 1111 159 319 227 653 216 1060 -8 280
-40 464 -123 701 -142 410 -443 776 -829 1009 -247 149 -576 264 -875 305
-111 15 -453 27 -535 19z m345 -446 c75 -18 177 -77 225 -130 86 -96 116 -199
91 -317 -30 -143 -108 -242 -290 -367 -63 -43 -115 -81 -115 -84 0 -10 450
-315 462 -314 7 1 111 74 232 163 120 90 223 165 229 167 13 5 39 -33 31 -46
-3 -5 -103 -82 -221 -170 -119 -89 -214 -163 -213 -164 2 -2 117 -82 255 -178
l250 -175 150 110 c82 60 167 120 188 134 101 65 244 82 353 42 80 -29 173
-123 198 -199 57 -169 -21 -353 -182 -428 -50 -23 -71 -27 -148 -26 -135 1
-187 25 -468 226 -38 27 -75 52 -82 55 -8 2 -98 -57 -202 -133 -103 -75 -214
-156 -245 -178 -32 -23 -56 -44 -55 -48 1 -3 101 -80 222 -170 230 -171 265
-204 299 -278 29 -62 29 -178 0 -240 -35 -75 -107 -145 -192 -187 -70 -35 -82
-38 -161 -38 -69 1 -94 5 -129 23 -23 12 -174 119 -336 237 -162 118 -299 215
-304 215 -6 0 -143 -97 -304 -215 -161 -118 -313 -225 -338 -237 -37 -19 -61
-23 -135 -23 -111 0 -163 22 -248 106 -130 130 -154 313 -57 431 17 21 132
112 255 205 124 92 225 170 225 174 0 7 -464 347 -485 355 -8 3 -58 -25 -112
-63 -240 -169 -340 -215 -473 -216 -73 -1 -94 3 -148 28 -80 36 -152 112 -182
193 -64 167 28 369 197 432 76 28 187 29 265 1 63 -22 201 -107 345 -213 50
-38 97 -68 103 -68 14 0 500 332 500 342 0 6 -255 199 -392 298 -52 36 -57 49
-30 73 16 14 34 3 251 -159 233 -172 235 -174 260 -158 13 9 57 40 97 68 40
28 136 94 213 146 77 52 140 98 141 101 0 3 -61 47 -135 98 -226 156 -299 255
-300 406 0 69 4 89 31 146 19 40 53 88 86 120 82 82 159 118 308 143 36 6 167
-3 220 -16z"/>
<path d="M2050 3784 c-113 -30 -203 -103 -252 -202 -45 -90 -45 -161 0 -247
40 -78 97 -132 265 -249 l138 -97 123 85 c197 136 274 237 284 375 6 89 -15
151 -72 216 -79 91 -195 136 -346 134 -47 0 -110 -7 -140 -15z"/>
<path d="M1965 2751 c-126 -87 -230 -164 -230 -171 0 -7 102 -89 227 -181
l228 -169 235 175 c129 96 235 178 235 182 -1 8 -437 314 -455 319 -6 2 -113
-68 -240 -155z"/>
<path d="M2514 2393 c-278 -207 -270 -201 -259 -211 6 -5 115 -87 243 -181
l233 -172 250 182 c138 100 246 185 242 189 -4 4 -83 60 -175 123 -91 63 -202
140 -245 171 l-79 55 -210 -156z"/>
<path d="M1413 2371 c-134 -92 -245 -170 -249 -173 -3 -4 36 -38 88 -75 296
-218 355 -261 378 -276 25 -16 27 -14 260 160 129 96 235 179 235 184 0 9
-454 349 -464 348 -3 0 -115 -75 -248 -168z"/>
<path d="M403 2459 c-95 -37 -173 -151 -173 -254 0 -101 76 -213 171 -255 43
-18 66 -21 134 -18 73 3 91 8 170 47 79 39 287 172 323 206 11 10 1 21 -55 62
-134 100 -287 196 -341 214 -71 25 -162 24 -229 -2z"/>
<path d="M3727 2457 c-36 -13 -122 -68 -222 -141 -161 -118 -163 -120 -142
-136 99 -76 309 -213 353 -230 82 -30 194 -28 262 6 175 87 205 317 59 451
-79 73 -199 92 -310 50z"/>
<path d="M1948 1972 c-131 -97 -238 -179 -237 -182 0 -6 464 -343 478 -348 9
-3 474 333 479 346 2 7 -458 354 -476 359 -4 1 -114 -77 -244 -175z"/>
<path d="M1420 1580 c-124 -93 -239 -185 -256 -204 -17 -20 -37 -57 -44 -81
-42 -151 105 -346 274 -362 90 -8 122 10 441 242 165 120 301 218 302 219 3 2
-476 351 -484 353 -5 0 -109 -75 -233 -167z"/>
<path d="M2610 1664 c-63 -47 -170 -126 -237 -176 -68 -49 -123 -91 -123 -93
0 -2 95 -72 211 -157 433 -316 409 -301 505 -300 191 2 348 182 300 345 -26
89 -45 106 -478 425 -31 23 -58 42 -60 41 -2 0 -55 -39 -118 -85z"/>
</g>
</svg>
