<?xml version="1.0" standalone="no"?>
<!DOCTYPE svg PUBLIC "-//W3C//DTD SVG 20010904//EN"
 "http://www.w3.org/TR/2001/REC-SVG-20010904/DTD/svg10.dtd">
<svg version="1.0" xmlns="http://www.w3.org/2000/svg"
 width="438.000000pt" height="438.000000pt" viewBox="0 0 438.000000 438.000000"
 preserveAspectRatio="xMidYMid meet">
<metadata>
Created by potrace 1.14, written by Peter Selinger 2001-2017
</metadata>
<g transform="translate(0.000000,438.000000) scale(0.100000,-0.100000)"
fill="#000000" stroke="none">
<path d="M1887 4289 c-162 -16 -455 -90 -612 -155 -547 -228 -926 -603 -1131
-1121 -164 -413 -189 -982 -65 -1450 200 -751 827 -1299 1661 -1452 535 -98
1094 -18 1556 224 333 174 562 379 759 680 109 166 220 429 260 615 51 235 56
288 57 550 0 325 -20 466 -104 729 -143 447 -443 823 -853 1067 -153 91 -269
145 -444 205 -127 44 -375 98 -504 109 -131 12 -454 11 -580 -1z"/>
</g>
</svg>
